# xmcd CD database file
#
# Track frame offsets:
#	150
#	5529
#	31688
#	62819
#	69789
#	98305
#	127553
#	156560
#	189273
#	197427
#	219618
#	238576
#	257833
#	288777
#	309382
#	313818
#
# Disc length: 4627 seconds
#
# Revision: 0
# Processed by: cddbd v1.5.2PL0 Copyright (c) Steve Scherf et al.
# Submitted via: CDex 1.77
#
DISCID=c9121110
DTITLE=Uridium - Beyond the Shores of the Cosmic Ocean
DYEAR=2015
DGENRE=New Age
TTITLE0=The Ancient Wish (Upon a Star) - Featuring Leo Casper - Casper
TTITLE1=Billions and Billions - Featuring SUBLEVEL - Heeks, Garret
TTITLE2=Blast Off! - Berimbau, Garret
TTITLE3=Space Age - Garret
TTITLE4=Voyager - Berimbau, Garret
TTITLE5=Die Telemetrie - Garret
TTITLE6=Black Hole - Ergosphere - Berimbau
TTITLE7=Black Hole - Event Horizon - Berimbau
TTITLE8=Unknow Reality - Garret
TTITLE9=Kernel Panic (On Flight Computer) - Featuring Szorki - Gracioli
TTITLE10=Memories of Earth (Based on Schummann's First Loss, Op. 68,N.16 - Valdivia
TTITLE11=Terraforming - Featuring Szorki - Gracioli, Garret
TTITLE12=New Horizons - Berimbau
TTITLE13=Rogue Planet - Featuring Szorki - Gracioli
TTITLE14=Prelude to Infinity - Garret
TTITLE15=Starman - Garret
EXTD=YEAR: 2015
EXTT0=
EXTT1=
EXTT2=
EXTT3=
EXTT4=
EXTT5=
EXTT6=
EXTT7=
EXTT8=
EXTT9=
EXTT10=
EXTT11=
EXTT12=
EXTT13=
EXTT14=
EXTT15=
PLAYORDER=
